<svg version="1.1" id="Layer_1" xmlns="http://www.w3.org/2000/svg" xmlns:xlink="http://www.w3.org/1999/xlink" x="0px" y="0px" width="20px" height="20px" viewBox="0 0 6.666 7.28" enable-background="new 0 0 6.666 7.28" xml:space="preserve" preserveAspectRatio="xMidYMid meet">
<path fill-rule="evenodd" clip-rule="evenodd" fill="#ffffff" stroke-width="1" d="M2.285,6.798h2.097V6.085v-0.76V4.758V2.444
c0-0.03-0.013-0.057-0.032-0.076c-0.02-0.02-0.046-0.032-0.076-0.032H4.007H2.659H2.393c-0.03,0-0.057,0.012-0.077,0.032L2.314,2.37
C2.296,2.389,2.285,2.416,2.285,2.444v0.852v0.522v0.18v0.568v0.759v0.76V6.798L2.285,6.798z M0.072,6.798h0.744V3.999
c0-0.069,0.028-0.132,0.074-0.178h0h0c0.045-0.046,0.109-0.074,0.179-0.074h0.199v-0.45c0-0.04,0.032-0.072,0.072-0.072h0.801v-0.78
c0-0.067,0.027-0.128,0.07-0.173c0.001-0.002,0.003-0.004,0.004-0.005C2.26,2.22,2.324,2.191,2.393,2.191h0.194V1.626
c0-0.04,0.032-0.072,0.072-0.072h0.284V0.989c0-0.04,0.032-0.072,0.072-0.072h0.246V0.072C3.261,0.032,3.293,0,3.333,0
c0.04,0,0.072,0.032,0.072,0.072v0.845h0.246c0.039,0,0.072,0.033,0.072,0.072v0.565h0.283c0.04,0,0.072,0.032,0.072,0.072v0.564
h0.194c0.069,0,0.132,0.029,0.179,0.075c0.045,0.045,0.073,0.108,0.073,0.178V4.53c0.033-0.016,0.069-0.025,0.108-0.025h0.978
c0.069,0,0.133,0.029,0.179,0.074c0.045,0.046,0.074,0.109,0.074,0.179v2.04h0.729c0.04,0,0.072,0.031,0.072,0.072v0.41
c0,0.039-0.032,0.072-0.072,0.072H0.072C0.033,7.353,0,7.319,0,7.28V6.87C0,6.829,0.033,6.798,0.072,6.798L0.072,6.798z
 M6.521,6.941H5.792H4.454H2.213H0.888H0.145v0.267h6.377V6.941L6.521,6.941z M2.85,3.879c-0.04,0-0.072-0.032-0.072-0.072
S2.811,3.734,2.85,3.734h0.965c0.041,0,0.072,0.032,0.072,0.072S3.856,3.879,3.815,3.879H2.85L2.85,3.879z M2.85,3.12
c-0.04,0-0.072-0.032-0.072-0.072S2.811,2.976,2.85,2.976h0.965c0.041,0,0.072,0.032,0.072,0.072S3.856,3.12,3.815,3.12H2.85
L2.85,3.12z M2.85,6.157c-0.04,0-0.072-0.032-0.072-0.072c0-0.039,0.032-0.072,0.072-0.072h0.965c0.041,0,0.072,0.033,0.072,0.072
c0,0.04-0.031,0.072-0.072,0.072H2.85L2.85,6.157z M2.85,5.397c-0.04,0-0.072-0.032-0.072-0.072c0-0.039,0.032-0.072,0.072-0.072
h0.965c0.041,0,0.072,0.033,0.072,0.072c0,0.04-0.031,0.072-0.072,0.072H2.85L2.85,5.397z M2.85,4.639
c-0.04,0-0.072-0.032-0.072-0.072S2.811,4.494,2.85,4.494h0.965c0.041,0,0.072,0.032,0.072,0.072S3.856,4.639,3.815,4.639H2.85
L2.85,4.639z M4.525,6.013h0.698c0.039,0,0.072,0.033,0.072,0.072c0,0.04-0.033,0.072-0.072,0.072H4.525v0.641H5.72v-2.04
c0-0.03-0.012-0.057-0.031-0.076C5.668,4.661,5.642,4.649,5.611,4.649H4.634c-0.029,0-0.057,0.012-0.076,0.032l0,0
C4.538,4.7,4.526,4.728,4.525,4.756v0.497h0.698c0.039,0,0.072,0.033,0.072,0.072c0,0.04-0.033,0.072-0.072,0.072H4.525V6.013
L4.525,6.013z M1.34,6.157c-0.04,0-0.072-0.032-0.072-0.072c0-0.039,0.032-0.072,0.072-0.072h0.801V5.397H1.34
c-0.04,0-0.072-0.032-0.072-0.072c0-0.039,0.032-0.072,0.072-0.072h0.801V4.639H1.34c-0.04,0-0.072-0.032-0.072-0.072
S1.3,4.495,1.34,4.495h0.801V3.998c0-0.029-0.012-0.056-0.032-0.075C2.09,3.903,2.063,3.891,2.034,3.891H2.032H1.34H1.069
c-0.03,0-0.057,0.012-0.077,0.032h0C0.972,3.942,0.96,3.969,0.96,3.999v2.799h1.18V6.157H1.34L1.34,6.157z M2.141,3.368H1.412v0.378
h0.62h0.002h0.106V3.368L2.141,3.368z M3.579,1.554V1.062H3.333H3.087v0.493H3.579L3.579,1.554z M3.935,1.698H3.651H3.015H2.731
v0.493h1.203V1.698z"/>
</svg>
