<svg version="1.1" id="Layer_1" xmlns="http://www.w3.org/2000/svg" xmlns:xlink="http://www.w3.org/1999/xlink" x="0px" y="0px" width="20px" height="20px" viewBox="0 0 5.222 5.597" enable-background="new 0 0 5.222 5.597" xml:space="preserve">
<path fill-rule="evenodd" clip-rule="evenodd" stroke-width="1" fill="#ffffff" d="M0.073,4.912h0.465V2.812H0.071C0.032,2.812,0,2.78,0,2.741V2.313
c0-0.024,0.011-0.045,0.029-0.058l2.52-2.237c0.027-0.024,0.068-0.023,0.095,0h0.001l2.551,2.245C5.212,2.277,5.22,2.297,5.22,2.316
l0,0v0.424c0,0.04-0.032,0.072-0.071,0.072H4.684v2.099h0.466c0.04,0,0.072,0.033,0.072,0.072v0.541c0,0.04-0.032,0.072-0.072,0.072
H0.073c-0.04,0-0.072-0.032-0.072-0.072V4.984C0.001,4.945,0.033,4.912,0.073,4.912L0.073,4.912z M0.683,4.912h1.104V2.857
c0-0.04,0.032-0.072,0.071-0.072h1.501c0.04,0,0.072,0.032,0.072,0.072v2.055H4.54V2.741c0-0.04,0.032-0.072,0.072-0.072h0.464
V2.349L2.597,0.168L0.144,2.345v0.324H0.61c0.04,0,0.072,0.032,0.072,0.072V4.912L0.683,4.912z M1.931,4.912h1.356V2.929H1.931
V4.912L1.931,4.912z M3.363,5.056H3.359H1.858H1.855H0.61H0.146v0.396h4.932V5.056H4.612H3.363z"/>
</svg>
