<svg version="1.1" id="Layer_1" xmlns="http://www.w3.org/2000/svg" xmlns:xlink="http://www.w3.org/1999/xlink" x="0px" y="0px"
   width="15px" height="15px" viewBox="0 0 5.28 6.642" enable-background="new 0 0 5.28 6.642" xml:space="preserve">
<path fill-rule="evenodd" clip-rule="evenodd" fill="#ffffff" d="M2.585,6.615C2.376,6.371,2.143,6.113,1.902,5.848
  c-0.51-0.564-1.05-1.163-1.421-1.688l0,0l0,0C0.323,3.932,0.203,3.688,0.122,3.434C0.042,3.18,0,2.914,0,2.64
  c0-0.729,0.296-1.389,0.773-1.866C1.252,0.296,1.911,0,2.641,0c0.729,0,1.389,0.296,1.866,0.773S5.28,1.91,5.28,2.64l0,0
  c0,0.273-0.042,0.542-0.123,0.798C5.076,3.692,4.956,3.936,4.799,4.159c-0.37,0.525-0.911,1.124-1.421,1.688
  c-0.24,0.266-0.474,0.525-0.683,0.77C2.669,6.646,2.624,6.65,2.594,6.625C2.59,6.621,2.588,6.619,2.585,6.615L2.585,6.615z
   M2.641,1.47c-0.323,0-0.616,0.131-0.827,0.343C1.602,2.024,1.471,2.316,1.471,2.64l0,0c0,0.323,0.131,0.615,0.343,0.827
  S2.317,3.81,2.641,3.81s0.615-0.131,0.827-0.343S3.811,2.963,3.811,2.64l0,0c0-0.323-0.131-0.615-0.343-0.827S2.964,1.47,2.641,1.47
  L2.641,1.47L2.641,1.47z M1.711,1.711C1.474,1.948,1.326,2.276,1.326,2.64l0,0c0.001,0.363,0.147,0.691,0.385,0.93
  c0.238,0.237,0.566,0.384,0.93,0.384c0.362,0,0.691-0.146,0.929-0.384c0.238-0.238,0.385-0.566,0.385-0.93l0,0
  c0-0.363-0.146-0.691-0.385-0.929C3.332,1.473,3.003,1.326,2.641,1.326l0,0C2.277,1.326,1.949,1.473,1.711,1.711L1.711,1.711z
   M2.009,5.75c0.224,0.248,0.44,0.488,0.632,0.709c0.19-0.221,0.408-0.461,0.631-0.707c0.506-0.56,1.043-1.154,1.41-1.676
  c0.148-0.211,0.262-0.44,0.339-0.683C5.097,3.151,5.137,2.897,5.137,2.64H5.136c0-0.689-0.279-1.313-0.73-1.765
  C3.953,0.424,3.329,0.144,2.641,0.144c-0.689,0-1.313,0.28-1.766,0.731C0.424,1.326,0.145,1.95,0.145,2.64
  c0,0.26,0.039,0.511,0.115,0.75C0.336,3.631,0.45,3.861,0.6,4.076l0,0C0.967,4.598,1.503,5.192,2.009,5.75z"/>
</svg>
