<svg version="1.1" id="Layer_1" xmlns="http://www.w3.org/2000/svg" xmlns:xlink="http://www.w3.org/1999/xlink" x="0px" y="0px"
   width="20px" height="20px" viewBox="0 0 5.822 7.117" enable-background="new 0 0 5.822 7.117" xml:space="preserve">
<path fill-rule="evenodd" clip-rule="evenodd" fill="#ffffff" d="M3.887,3.604c0.004,0.043,0.008,0.094,0.012,0.149
  c0.013,0.188,0.029,0.439,0.055,0.544l0.244,0.15c0.476,0.1,0.895,0.261,1.186,0.48c0.275,0.208,0.439,0.468,0.439,0.781l0,0v0.975
  c0,0.119-0.049,0.229-0.127,0.307l0,0C5.617,7.068,5.51,7.117,5.391,7.117H2.994H2.993H2.828H0.432
  c-0.119,0-0.227-0.049-0.305-0.127h0l0,0l0-0.002C0.048,6.91,0,6.803,0,6.684V5.709c0-0.312,0.165-0.572,0.44-0.778
  c0.292-0.219,0.712-0.379,1.188-0.479l0.245-0.161C1.897,4.187,1.91,3.935,1.921,3.746C1.924,3.688,1.927,3.635,1.93,3.597
  C1.891,3.555,1.854,3.511,1.816,3.465C1.67,3.278,1.548,3.06,1.463,2.828C1.383,2.607,1.337,2.375,1.337,2.146V2.135
  c0-0.005,0-0.009,0.001-0.014C1.337,2.091,1.336,2.063,1.336,2.04c0-0.12-0.001-0.216-0.003-0.31C1.314,0.75,1.301,0,2.911,0
  c1.61,0,1.597,0.75,1.579,1.729c-0.002,0.094-0.004,0.19-0.004,0.31c0,0.008,0,0.024,0,0.047L4.484,2.122
  c0.002,0.004,0.002,0.009,0.002,0.013l0,0v0.011c0,0.051-0.002,0.103-0.007,0.154L4.479,2.302v0.001
  C4.463,2.48,4.422,2.658,4.359,2.828C4.275,3.06,4.152,3.278,4.006,3.465C3.968,3.513,3.929,3.56,3.887,3.604L3.887,3.604z
   M2.053,3.519L2.053,3.519L2.055,3.52l0.002,0.003c0.108,0.113,0.228,0.209,0.352,0.281C2.57,3.898,2.741,3.952,2.911,3.952
  c0.171,0,0.342-0.054,0.503-0.148c0.176-0.102,0.339-0.25,0.479-0.428C4.03,3.201,4.146,2.996,4.225,2.779
  c0.057-0.156,0.095-0.317,0.11-0.479L4.25,1.938C4.23,1.867,4.221,1.798,4.215,1.731C4.209,1.671,4.208,1.606,4.207,1.543
  C4.205,1.469,4.203,1.397,4.191,1.333C4.181,1.273,4.16,1.218,4.123,1.17L4.12,1.166C4.062,1.095,3.987,1.071,3.898,1.071
  c-0.102,0-0.225,0.033-0.357,0.068l0,0c-0.191,0.05-0.4,0.104-0.63,0.104c-0.228,0-0.433-0.053-0.624-0.103
  C2.283,1.14,2.28,1.14,2.276,1.138C2.146,1.104,2.023,1.072,1.924,1.071c-0.09,0-0.166,0.024-0.225,0.098
  C1.662,1.218,1.643,1.273,1.631,1.333C1.619,1.397,1.617,1.469,1.616,1.543C1.615,1.606,1.613,1.67,1.607,1.731
  C1.602,1.797,1.592,1.865,1.573,1.936L1.488,2.299c0.015,0.162,0.053,0.324,0.11,0.48C1.678,2.996,1.793,3.201,1.93,3.376
  C1.969,3.426,2.011,3.474,2.053,3.519L2.053,3.519z M2.065,3.731L2.064,3.753c-0.01,0.18-0.022,0.417-0.047,0.547L2.92,4.816
  l0.889-0.508c-0.025-0.13-0.042-0.366-0.054-0.545L3.753,3.735C3.668,3.81,3.579,3.875,3.486,3.929
  C3.303,4.035,3.107,4.096,2.911,4.096S2.52,4.035,2.336,3.929C2.242,3.874,2.151,3.807,2.065,3.731L2.065,3.731z M4.35,1.513
  c0.006-0.79-0.094-1.369-1.438-1.369c-1.346,0-1.443,0.58-1.438,1.371c0.002-0.071,0.004-0.14,0.017-0.208
  C1.504,1.227,1.533,1.15,1.587,1.081c0.09-0.115,0.204-0.154,0.337-0.154C2.045,0.928,2.174,0.962,2.314,1L2.318,1
  c0.183,0.048,0.381,0.1,0.593,0.1c0.213,0,0.411-0.052,0.593-0.1l0,0c0.143-0.038,0.273-0.072,0.395-0.073
  c0.131,0,0.244,0.037,0.334,0.149l0.004,0.004C4.29,1.15,4.318,1.226,4.332,1.307C4.346,1.374,4.348,1.442,4.35,1.513L4.35,1.513z
   M2.807,5.254l0.046,0.111C2.862,5.383,2.869,5.4,2.875,5.418c0.006,0.023,0.008,0.046,0.004,0.07V5.49
  C2.846,5.764,2.812,6.018,2.777,6.271c-0.02,0.145-0.039,0.289-0.059,0.431l0.152,0.271h0.08l0.166-0.297
  C3.1,6.545,3.081,6.407,3.062,6.27C3.027,6.016,2.993,5.762,2.96,5.488c-0.003-0.025-0.001-0.047,0.005-0.07
  C2.971,5.4,2.978,5.383,2.987,5.365l0.046-0.111L2.92,5.047L2.807,5.254L2.807,5.254z M3.122,5.416L3.119,5.424l0,0
  C3.117,5.427,3.116,5.43,3.114,5.433C3.109,5.441,3.105,5.449,3.104,5.455c-0.001,0.006-0.001,0.011,0,0.016
  C3.138,5.758,3.172,6.004,3.205,6.25l0.029,0.217C3.266,6.41,3.298,6.354,3.329,6.299l0,0c0.285-0.504,0.487-0.863,0.691-1.534
  L3.269,5.492C3.24,5.521,3.194,5.52,3.167,5.491c-0.005-0.005-0.009-0.01-0.011-0.016l0,0L3.122,5.416L3.122,5.416z M2.602,6.492
  l0.033-0.24C2.668,6.006,2.701,5.76,2.736,5.474V5.471c0.001-0.005,0-0.01-0.001-0.016S2.73,5.443,2.727,5.436
  C2.725,5.432,2.723,5.428,2.721,5.424L2.717,5.416l-0.033,0.06l0,0C2.681,5.48,2.678,5.486,2.673,5.49
  C2.646,5.52,2.6,5.521,2.571,5.493L1.799,4.755C2.002,5.43,2.205,5.791,2.49,6.295l0.002,0.004C2.528,6.361,2.564,6.426,2.602,6.492
  L2.602,6.492z M1.938,4.421L1.771,4.53l0.832,0.794l0.059-0.108l0.002-0.001V5.213l0.001-0.002l0.157-0.285L1.938,4.421L1.938,4.421
  z M4.057,4.53L3.89,4.427L3.017,4.926l0.157,0.285l0.004,0.006l0.059,0.107L4.057,4.53L4.057,4.53z M1.604,4.604
  C1.169,4.7,0.79,4.847,0.525,5.045c-0.239,0.18-0.382,0.401-0.382,0.664v0.975c0,0.08,0.033,0.152,0.084,0.204h0
  C0.281,6.94,0.353,6.973,0.432,6.973h2.273L2.582,6.752L2.58,6.75L2.579,6.747C2.5,6.604,2.432,6.482,2.367,6.369L2.365,6.365
  C2.049,5.805,1.832,5.42,1.604,4.604L1.604,4.604z M3.116,6.973h2.274c0.078,0,0.15-0.032,0.203-0.084
  c0.053-0.053,0.085-0.125,0.085-0.205V5.709l0,0c0-0.263-0.144-0.485-0.382-0.666C5.032,4.844,4.653,4.695,4.219,4.599
  C3.99,5.42,3.772,5.806,3.454,6.369l0,0l0,0C3.395,6.475,3.33,6.588,3.256,6.723v0.001l0,0L3.255,6.725L3.254,6.726v0.001
  L3.116,6.973z"/>
</svg>
