<svg version="1.1" id="Layer_1" xmlns="http://www.w3.org/2000/svg" xmlns:xlink="http://www.w3.org/1999/xlink" x="0px" y="0px" width="20px" height="20px" viewBox="0 0 6.561 6.051" enable-background="new 0 0 6.561 6.051" xml:space="preserve">
<path fill-rule="evenodd" clip-rule="evenodd" stroke-width="0.1" fill="#ffffff" d="M3.665,1.438c0.187,0.059,0.354,0.162,0.488,0.296
C4.37,1.951,4.504,2.25,4.504,2.58c0,0.04-0.032,0.072-0.072,0.072h-2.25c-0.04,0-0.072-0.032-0.072-0.072
c0-0.331,0.135-0.629,0.351-0.847c0.135-0.134,0.302-0.237,0.487-0.295C2.881,1.402,2.819,1.357,2.766,1.304
c-0.137-0.138-0.223-0.329-0.223-0.54s0.086-0.402,0.223-0.54C2.904,0.085,3.096,0,3.307,0s0.401,0.085,0.539,0.224
C3.984,0.362,4.07,0.553,4.07,0.764s-0.086,0.401-0.225,0.54l0,0v0C3.793,1.356,3.732,1.402,3.665,1.438L3.665,1.438z M3.234,2.867
c0-0.04,0.033-0.072,0.072-0.072c0.04,0,0.072,0.032,0.072,0.072v0.485c0.142,0.017,0.269,0.081,0.364,0.177h0.001
c0.111,0.112,0.181,0.267,0.181,0.438c0,0.129-0.04,0.249-0.108,0.349l0.39,0.394c0.028,0.027,0.028,0.073,0,0.102
c-0.028,0.027-0.073,0.027-0.102,0L3.722,4.423c-0.11,0.1-0.255,0.16-0.415,0.16c-0.153,0-0.295-0.057-0.402-0.149L2.529,4.81
c-0.029,0.027-0.074,0.027-0.103,0c-0.028-0.028-0.028-0.074,0-0.103l0.38-0.38C2.732,4.226,2.689,4.101,2.689,3.966
c0-0.172,0.068-0.326,0.18-0.438c0.097-0.096,0.224-0.16,0.365-0.177V2.867L3.234,2.867z M2.953,4.282L2.953,4.282
C2.956,4.285,2.958,4.287,2.96,4.289C2.964,4.292,2.968,4.296,2.972,4.3l0,0c0.086,0.086,0.204,0.139,0.335,0.139
S3.556,4.386,3.642,4.3C3.727,4.214,3.78,4.097,3.78,3.966s-0.053-0.25-0.139-0.335C3.557,3.545,3.438,3.492,3.307,3.492l0,0
c-0.131,0-0.249,0.053-0.335,0.139C2.887,3.716,2.833,3.835,2.833,3.966C2.833,4.087,2.879,4.199,2.953,4.282L2.953,4.282z
 M1.25,3.399c-0.21,0-0.402,0.085-0.54,0.224c-0.138,0.139-0.224,0.329-0.224,0.54s0.086,0.401,0.224,0.54
C0.764,4.755,0.825,4.8,0.892,4.837c-0.187,0.059-0.353,0.16-0.488,0.295C0.188,5.35,0.054,5.648,0.054,5.98
c0,0.039,0.032,0.07,0.072,0.07h2.251c0.039,0,0.071-0.031,0.071-0.07c0-0.332-0.134-0.631-0.351-0.848
C1.963,4.998,1.796,4.895,1.61,4.836C1.677,4.8,1.737,4.755,1.791,4.703l0,0l0,0c0.138-0.139,0.224-0.33,0.224-0.54
c0-0.211-0.085-0.401-0.224-0.54C1.652,3.484,1.461,3.399,1.25,3.399L1.25,3.399z M1.688,3.725C1.801,3.836,1.87,3.992,1.87,4.163
S1.801,4.489,1.688,4.601l0,0C1.577,4.712,1.422,4.782,1.251,4.782h0c-0.171,0-0.326-0.069-0.438-0.181
C0.701,4.489,0.631,4.333,0.631,4.163s0.07-0.326,0.182-0.438C0.925,3.612,1.08,3.543,1.25,3.543S1.577,3.612,1.688,3.725
L1.688,3.725z M1.996,5.235C2.17,5.41,2.284,5.645,2.302,5.908H0.2C0.218,5.645,0.332,5.41,0.507,5.235
c0.19-0.19,0.453-0.309,0.744-0.31h0C1.542,4.925,1.805,5.044,1.996,5.235L1.996,5.235z M5.362,3.399
c-0.211,0-0.401,0.085-0.54,0.224c-0.139,0.139-0.224,0.329-0.224,0.54s0.085,0.401,0.224,0.54C4.875,4.755,4.937,4.8,5.004,4.837
C4.817,4.896,4.65,4.998,4.516,5.132C4.3,5.35,4.166,5.648,4.166,5.98c0,0.039,0.031,0.07,0.071,0.07h2.251
c0.039,0,0.072-0.031,0.072-0.07c0-0.332-0.135-0.631-0.352-0.848C6.074,4.998,5.908,4.895,5.722,4.836
C5.789,4.8,5.85,4.755,5.902,4.703l0,0l0,0c0.139-0.139,0.224-0.33,0.224-0.54c0-0.211-0.085-0.401-0.224-0.54
C5.764,3.484,5.572,3.399,5.362,3.399L5.362,3.399z M5.801,3.725c0.111,0.112,0.182,0.267,0.182,0.438s-0.07,0.326-0.182,0.438l0,0
C5.688,4.712,5.533,4.782,5.363,4.782H5.362c-0.171,0-0.326-0.069-0.438-0.181C4.812,4.489,4.743,4.333,4.743,4.163
s0.069-0.326,0.181-0.438c0.112-0.112,0.268-0.181,0.438-0.181S5.688,3.612,5.801,3.725L5.801,3.725z M6.107,5.235
c0.175,0.175,0.289,0.41,0.307,0.673H4.312C4.33,5.645,4.443,5.41,4.618,5.235c0.19-0.19,0.454-0.309,0.744-0.31h0.001
C5.653,4.925,5.917,5.044,6.107,5.235L6.107,5.235z M3.307,1.383L3.307,1.383c0.171,0,0.326-0.069,0.438-0.181l0,0
c0.112-0.112,0.182-0.267,0.182-0.438S3.856,0.438,3.744,0.326C3.632,0.213,3.478,0.144,3.307,0.144
c-0.172,0-0.326,0.069-0.438,0.182S2.688,0.593,2.688,0.764s0.068,0.326,0.181,0.438C2.98,1.313,3.135,1.383,3.307,1.383
L3.307,1.383z M4.051,1.835c-0.189-0.19-0.453-0.308-0.744-0.308l0,0c-0.291,0-0.555,0.118-0.744,0.308
C2.387,2.01,2.273,2.246,2.256,2.508h2.102C4.34,2.246,4.227,2.01,4.051,1.835z"/>
</svg>
