<svg version="1.1" id="Layer_1" xmlns="http://www.w3.org/2000/svg" xmlns:xlink="http://www.w3.org/1999/xlink" x="0px" y="0px"
   width="20px" height="20px" viewBox="0 0 5.28 5.242" enable-background="new 0 0 5.28 5.242" xml:space="preserve">
<g>
  <path stroke-width="0.1" fill="#ffffff" d="M3.122,5.242c-0.06,0-0.121-0.012-0.182-0.032C2.865,5.183,2.789,5.133,2.729,5.073C2.094,4.441,1.462,3.809,0.832,3.177
    L0.687,3.032C0.579,2.924,0.473,2.818,0.368,2.708C0.152,2.484,0.039,2.208,0.03,1.891C0.026,1.738,0.027,1.585,0.028,1.432
    l0.001-0.877C0.029,0.229,0.256,0,0.581,0h1.301c0.347,0,0.647,0.125,0.893,0.37c0.474,0.473,0.946,0.947,1.421,1.422l0.552,0.549
    C4.865,2.458,4.984,2.575,5.1,2.692C5.266,2.858,5.313,3.056,5.237,3.26c-0.026,0.072-0.075,0.147-0.15,0.224
    C4.85,3.724,4.612,3.963,4.373,4.199L4.116,4.457C3.985,4.586,3.854,4.718,3.722,4.85L3.506,5.068
    C3.391,5.184,3.262,5.242,3.122,5.242z M1.45,0.191l-0.869,0c-0.223,0-0.36,0.139-0.361,0.363L0.219,1.433
    C0.218,1.584,0.217,1.735,0.221,1.886c0.007,0.268,0.102,0.501,0.284,0.69c0.104,0.108,0.21,0.215,0.316,0.32l0.146,0.146
    c0.631,0.632,1.262,1.265,1.897,1.896c0.039,0.041,0.092,0.075,0.14,0.092c0.137,0.049,0.253,0.018,0.368-0.096l0.215-0.218
    C3.718,4.583,3.85,4.452,3.982,4.32l0.256-0.256C4.477,3.827,4.713,3.59,4.949,3.35c0.056-0.056,0.092-0.109,0.108-0.157
    C5.108,3.06,5.076,2.94,4.964,2.826C4.848,2.709,4.73,2.593,4.614,2.477l-0.553-0.55C3.588,1.452,3.113,0.978,2.639,0.505
    C2.432,0.296,2.176,0.192,1.882,0.191L1.45,0.191z M1.2,1.685c-0.295,0-0.527-0.231-0.532-0.515
    C0.664,0.882,0.896,0.645,1.184,0.639h0.01c0.284,0,0.518,0.234,0.52,0.521C1.716,1.443,1.486,1.679,1.2,1.685L1.2,1.685z
     M1.193,0.735L1.187,0.831c-0.184,0.003-0.33,0.153-0.327,0.336c0.002,0.18,0.149,0.327,0.327,0.328
    C1.377,1.49,1.524,1.341,1.523,1.162c-0.001-0.183-0.15-0.331-0.33-0.331V0.735z"/>
</g>
</svg>
