<svg version="1.1" id="Layer_1" xmlns="http://www.w3.org/2000/svg" xmlns:xlink="http://www.w3.org/1999/xlink" x="0px" y="0px"
   width="15x" height="15px" viewBox="0 0 2.395 2.652" enable-background="new 0 0 2.395 2.652" xml:space="preserve">
<path fill-rule="evenodd" clip-rule="evenodd" fill="#30383B" d="M1.556,1.438c0.187,0.059,0.354,0.162,0.488,0.296
  C2.261,1.951,2.395,2.25,2.395,2.58c0,0.04-0.032,0.072-0.072,0.072h-2.25C0.032,2.652,0,2.62,0,2.58
  C0,2.25,0.135,1.951,0.351,1.733c0.135-0.134,0.302-0.237,0.487-0.295C0.771,1.402,0.71,1.357,0.656,1.304
  C0.52,1.166,0.434,0.975,0.434,0.764s0.086-0.402,0.223-0.54C0.795,0.085,0.986,0,1.197,0s0.401,0.085,0.539,0.224
  c0.139,0.138,0.225,0.329,0.225,0.54s-0.086,0.401-0.225,0.54l0,0v0C1.684,1.356,1.623,1.402,1.556,1.438L1.556,1.438z M1.197,1.383
  L1.197,1.383c0.171,0,0.326-0.069,0.438-0.181l0,0c0.112-0.112,0.182-0.267,0.182-0.438S1.747,0.438,1.635,0.326
  C1.522,0.213,1.368,0.144,1.197,0.144c-0.172,0-0.326,0.069-0.438,0.182S0.578,0.593,0.578,0.764s0.068,0.326,0.181,0.438
  C0.871,1.313,1.025,1.383,1.197,1.383L1.197,1.383z M1.941,1.835c-0.189-0.19-0.453-0.308-0.744-0.308l0,0
  c-0.291,0-0.555,0.118-0.744,0.308C0.277,2.01,0.164,2.246,0.146,2.508h2.102C2.23,2.246,2.117,2.01,1.941,1.835z"/>
</svg>
